# xmcd
#
# Track frame offsets:
#	150
#	18962
#	40193
#	58495
#	80919
#	98965
#	126513
#	144192
#	162708
#	179802
#	194703
#	214504
#	229787
#
# Disc length: 3393 seconds
# Revision: 0
# Processed by: cddbd v1.5.2PL0 Copyright (c) Steve Scherf et al.
# Submitted via: dBpowerAMP V12.0
#
DISCID=c90d3f0d
DTITLE=Александр Егоров - Иду по зиме
DYEAR=1900
DGENRE=
TTITLE0=День осенний
TTITLE1=Летели метели
TTITLE2=Оттепель
TTITLE3=Америка
TTITLE4=Иду по зиме
TTITLE5=Разговор (дуэт с Сергеем Кузиным)
TTITLE6=Песенка студийного звукорежиссера
TTITLE7=Фотография
TTITLE8=Бывшая жена
TTITLE9=Тёмная вода
TTITLE10=Гулянка
TTITLE11=Не отпускай меня
TTITLE12=Памяти Вячеслава Хурсенко
EXTD=
EXTT0=
EXTT1=
EXTT2=
EXTT3=
EXTT4=
EXTT5=
EXTT6=
EXTT7=
EXTT8=
EXTT9=
EXTT10=
EXTT11=
EXTT12=
PLAYORDER=
